[IMG]http://i126.photobucket.com/albums/p102/tebugg/remember-me-movie.jpg[/IMG]

[IMG]http://i126.photobucket.com/albums/p102/tebugg/info.png[/IMG]

[code]
General

Format                           : AVI
Format/Info                      : Audio Video Interleave
Format profile                   : OpenDML
File size                        : 1.53 GiB
Duration                         : 1h 52mn
Overall bit rate                 : 1 953 Kbps
Writing application              : AVI-Mux GUI 1.17.8.3, Feb 16 201019:42:50

Video
ID                               : 0
Format                           : MPEG-4 Visual
Format profile                   : Advanced Simple@L5
Format settings, BVOP            : Yes
Format settings, QPel            : No
Format settings, GMC             : No warppoints
Format settings, Matrix          : Default (MPEG)
Codec ID                         : XVID
Codec ID/Hint                    : XviD
Duration                         : 1h 52mn
Bit rate                         : 1 500 Kbps
Width                            : 720 pixels
Height                           : 400 pixels
Display aspect ratio             : 16:9
Frame rate                       : 23.976 fps
Color space                      : YUV
Chroma subsampling               : 4:2:0
Bit depth                        : 8 bits
Scan type                        : Progressive
Bits/(Pixel*Frame)               : 0.217
Stream size                      : 1.18 GiB (77%)
Writing library                  : XviD 1.2.1 (UTC 2008-12-04)

Audio
ID                               : 1
Format                           : AC-3
Format/Info                      : Audio Coding 3
Mode extension                   : CM (complete main)
Codec ID                         : 2000
Duration                         : 1h 52mn
Bit rate mode                    : Constant
Bit rate                         : 448 Kbps
Channel(s)                       : 6 channels
Channel positions                : Front: L C R, Side: L R, LFE
Sampling rate                    : 48.0 KHz
Bit depth                        : 16 bits
Stream size                      : 360 MiB (23%)
Alignment                        : Aligned on interleaves
Interleave, duration             : 64 ms (1.53 video frames)
Interleave, preload duration     : 192 ms
Title                            : VTS_01_1 T80 3_2ch 448Kbps DELAY 0ms

Actors: Robert Pattinson, Emilie de Ravin, Pierce Brosnan, Chris Cooper, Ruby Jerins
Directors: Allen Coulter
Language: English, Spanish
Subtitle: English, Spanish
Rated: PG-13 (Parental Guidance Suggested)
Studio: Summit Entertainment
DVD Release Date: June 22, 2010
Run Time: 113 minutes
Sample Included: Yes

[/code]

[IMG]http://i126.photobucket.com/albums/p102/tebugg/plot.png[/IMG]

A romantic drama centered on two new lovers: Tyler, whose parents have split in the wake of his brother's suicide, and Ally, who lives each day to the fullest since witnessing her mother's murder.


[IMG]http://i126.photobucket.com/albums/p102/tebugg/screens-1.png[/IMG]

[IMG]http://i126.photobucket.com/albums/p102/tebugg/vlcsnap-2010-10-27-10h44m52s75.png[/IMG]
[IMG]http://i126.photobucket.com/albums/p102/tebugg/vlcsnap-2010-10-27-10h44m59s140.png[/IMG]
[IMG]http://i126.photobucket.com/albums/p102/tebugg/vlcsnap-2010-10-27-10h45m10s248.png[/IMG]
[IMG]http://i126.photobucket.com/albums/p102/tebugg/vlcsnap-2010-10-27-10h45m22s120.png[/IMG]


